<svg version="1.1" id="Layer_1" xmlns="http://www.w3.org/2000/svg" xmlns:xlink="http://www.w3.org/1999/xlink" x="0px" y="0px"
	 width="100%" viewBox="0 0 105 80" enable-background="new 0 0 105 80" xml:space="preserve">
<path fill="none" opacity="1.000000" stroke="#000000" stroke-linecap="round" stroke-linejoin="round" stroke-width="3.000000"
	d="
M79.500000,61.500000 
	C79.079811,58.422539 76.851730,58.464783 74.499870,58.480640 
	C66.833557,58.532330 59.166435,58.530399 51.500217,58.471729 
	C50.134365,58.461277 48.501369,59.161182 47.430954,57.362537 
	C48.058186,55.279449 49.553291,53.694115 50.904533,51.926998 
	C51.999477,50.495056 54.042717,48.364681 51.457203,46.561363 
	C49.225681,45.004944 48.053806,46.886875 46.410931,48.403519 
	C41.728687,52.725979 38.118931,58.189529 32.048016,61.100155 
	C27.516315,63.272823 22.862188,64.115417 17.624598,64.529747 
	C16.313768,69.112396 17.427298,73.824783 16.783005,78.681801 
	C25.720245,77.732170 33.922935,76.991173 41.064030,72.093353 
	C41.786930,71.597549 42.290684,71.290688 42.500000,70.500000 
"/>
<path fill="none" opacity="1.000000" stroke="#000000" stroke-linecap="round" stroke-linejoin="round" stroke-width="3.000000"
	d="
M93.000000,22.500000 
	C91.396797,23.301270 89.674461,22.986273 87.999985,22.988247 
	C71.500008,23.007700 55.000000,23.000000 38.500000,23.000000 
"/>
<path fill="none" opacity="1.000000" stroke="#000000" stroke-linecap="round" stroke-linejoin="round" stroke-width="3.000000"
	d="
M81.500000,13.000000 
	C85.071465,13.371940 89.162590,11.510172 91.179008,16.933443 
	C92.478981,20.429783 94.785919,23.211439 94.124062,27.519062 
	C92.438980,38.486233 91.375557,49.548923 90.098404,60.278831 
	C79.695900,61.913052 70.191551,65.086685 59.982933,64.195488 
	C55.235928,63.781075 50.969933,67.252151 46.500000,69.000000 
"/>
<path fill="none" opacity="1.000000" stroke="#000000" stroke-linecap="round" stroke-linejoin="round" stroke-width="3.000000"
	d="
M76.500000,13.000000 
	C67.666664,13.000000 58.833332,12.999997 50.000000,13.000000 
	C42.675789,13.000002 38.670025,16.299623 37.550179,23.507795 
	C37.298290,25.129116 37.198730,26.896793 38.000000,28.500000 
"/>
<path fill="none" opacity="1.000000" stroke="#000000" stroke-linecap="round" stroke-linejoin="round" stroke-width="3.000000"
	d="
M38.500000,32.500000 
	C39.156868,39.218136 39.326515,46.009357 41.500000,52.500000 
"/>
</svg>