<svg version="1.1" id="Layer_1" xmlns="http://www.w3.org/2000/svg" xmlns:xlink="http://www.w3.org/1999/xlink" x="0px" y="0px"
	 width="100%" viewBox="0 0 400 160" enable-background="new 0 0 400 160" xml:space="preserve">
<path fill="#000000" opacity="1.000000" stroke="none" 
	d="
M97.301819,83.146713 
	C97.312340,92.756889 97.312340,92.756889 103.965820,95.790909 
	C95.191765,95.790909 87.706070,95.790909 80.220375,95.790909 
	C85.357933,94.280205 85.083824,90.228096 85.041718,86.118744 
	C84.947815,76.954391 84.923599,67.786644 85.075249,58.623665 
	C85.142662,54.550446 84.885468,50.929527 79.215118,49.782154 
	C81.411980,48.298229 83.067696,48.670322 84.597488,48.667473 
	C92.262833,48.653183 99.935532,48.490459 107.591896,48.764416 
	C117.725891,49.127029 123.329063,55.208237 122.302086,64.221245 
	C121.702049,69.487381 117.791656,72.091431 113.347137,74.894875 
	C118.245728,82.112587 122.703987,89.362785 128.732285,95.525192 
	C119.009140,98.280022 114.729759,96.788078 109.275475,89.269653 
	C105.928185,84.655609 103.138153,79.542976 98.789810,75.443375 
	C96.555946,78.043861 97.613472,80.482254 97.301819,83.146713 
M110.383186,63.937366 
	C110.660217,56.159069 108.054085,52.314049 102.002739,51.483234 
	C98.959007,51.065350 97.183441,51.939552 97.296082,55.399166 
	C97.415001,59.051205 97.306412,62.710270 97.320625,66.366180 
	C97.345703,72.815636 99.693161,74.262283 105.558411,71.380463 
	C108.310394,70.028313 109.697189,67.650848 110.383186,63.937366 
z"/>
<path fill="#000000" opacity="1.000000" stroke="none" 
	d="
M214.704651,63.634148 
	C218.771545,64.240364 222.753006,62.297184 226.189529,65.034988 
	C226.456726,65.247849 227.365524,64.692398 227.959396,64.452621 
	C237.236343,60.706944 244.485474,64.630554 246.049423,74.629150 
	C246.606476,78.190498 246.577240,82.004768 245.964828,85.556908 
	C244.283432,95.309662 238.064163,98.678940 226.321777,96.130615 
	C226.321304,101.295692 224.097946,106.519386 229.912460,111.064545 
	C223.498535,111.064545 217.938736,111.064545 212.301804,111.064545 
	C216.084717,103.886703 215.880829,69.661240 212.098145,64.403435 
	C212.627304,63.561218 213.511047,63.736557 214.704651,63.634148 
M233.812637,70.054878 
	C232.904999,68.594078 231.888580,67.159637 229.881775,67.832451 
	C227.825089,68.521996 226.399612,70.163422 226.315353,72.239136 
	C226.080185,78.032799 226.006836,83.843819 226.183273,89.638443 
	C226.261749,92.215820 228.190430,94.054085 230.688126,94.183434 
	C233.227203,94.314926 234.210068,92.180038 234.700668,89.889771 
	C236.079956,83.450661 236.102539,77.063744 233.812637,70.054878 
z"/>
<path fill="#000000" opacity="1.000000" stroke="none" 
	d="
M327.140991,96.365013 
	C322.603058,96.369514 318.466309,96.369514 314.134338,96.369514 
	C317.873718,88.249153 317.657104,54.908226 313.747620,49.295311 
	C317.580444,48.095642 321.326080,48.657749 324.992615,48.837181 
	C327.659271,48.967686 327.278992,51.278141 327.289307,53.029545 
	C327.337219,61.149033 327.310455,69.268959 327.310455,77.611725 
	C335.558411,73.367516 337.842407,69.120644 334.507263,64.125664 
	C339.029022,63.371811 343.355255,63.442833 348.729095,64.111816 
	C344.647003,66.930328 341.450562,69.380157 338.821625,72.534126 
	C337.194336,74.486404 336.554321,75.924278 338.196442,78.150368 
	C342.334717,83.760223 345.351318,90.176582 351.193298,95.756546 
	C345.361633,95.756546 340.271423,95.756546 335.165497,95.756546 
	C335.932343,90.467598 332.021576,87.361610 328.780334,82.539192 
	C326.636627,87.840645 326.412384,91.794121 329.828308,95.338943 
	C329.224884,96.484367 328.319519,96.249313 327.140991,96.365013 
z"/>
<path fill="#000000" opacity="1.000000" stroke="none" 
	d="
M137.111938,95.193359 
	C129.606750,88.197296 128.546036,75.840172 134.477356,68.189011 
	C138.289490,63.271511 144.730087,61.312950 150.043335,63.455448 
	C155.468307,65.642990 158.424469,71.026398 157.743927,77.728127 
	C153.759109,79.041512 149.579620,78.342690 145.490128,78.298912 
	C141.176483,78.252731 140.714294,80.148163 142.002899,83.605522 
	C144.631638,90.658569 149.204803,91.978912 155.165405,87.314232 
	C155.825073,86.797989 156.421509,86.208878 157.350311,86.681396 
	C156.845291,95.716568 147.072617,99.997429 137.111938,95.193359 
M145.487427,75.635330 
	C149.975708,75.563820 148.755112,72.303871 148.487686,69.885681 
	C148.267014,67.890366 147.240952,65.476471 144.918564,65.900803 
	C141.502106,66.525032 141.495163,69.872971 141.019623,72.629967 
	C140.459778,75.875938 142.725479,75.583961 145.487427,75.635330 
z"/>
<path fill="#000000" opacity="1.000000" stroke="none" 
	d="
M270.021027,96.666527 
	C260.101257,98.317337 254.490417,95.227997 252.085236,87.168594 
	C249.125244,77.250099 253.005035,66.883400 260.912262,63.582935 
	C270.338196,59.648571 279.275635,67.012291 277.936768,78.330887 
	C272.794586,78.330887 267.551880,78.330887 261.880402,78.330887 
	C261.845062,83.193810 263.098450,86.730690 266.558289,89.267426 
	C271.232391,92.694466 274.031952,88.000175 278.250305,86.005478 
	C277.581360,91.628670 274.678925,94.562256 270.021027,96.666527 
M264.284821,66.252960 
	C262.432465,67.650795 261.880005,69.746628 261.476685,71.836021 
	C261.031677,74.141098 261.742096,75.796631 264.493805,75.626724 
	C266.489685,75.503487 269.483948,76.364235 269.406586,73.182419 
	C269.334381,70.213264 269.858856,66.154709 264.284821,66.252960 
z"/>
<path fill="#000000" opacity="1.000000" stroke="none" 
	d="
M308.755981,70.635162 
	C310.644653,78.393951 310.644653,78.394440 303.009430,78.380417 
	C301.844147,78.378281 300.653381,78.212502 299.519135,78.397240 
	C297.420197,78.739113 294.377350,77.035599 293.489716,80.171013 
	C292.604279,83.298759 294.270203,86.075340 296.504456,88.211090 
	C298.483368,90.102730 300.880249,91.496613 303.695435,89.815247 
	C305.364258,88.818535 306.860016,87.532082 308.482361,86.340096 
	C309.569977,90.720932 305.106018,96.116043 299.692627,97.169746 
	C292.468781,98.575859 286.281769,95.257530 283.827850,88.281197 
	C281.831665,82.606171 281.843567,76.763535 284.402588,71.256241 
	C286.715912,66.277710 290.640259,63.080845 296.354187,62.692753 
	C302.206543,62.295258 306.210052,65.006012 308.755981,70.635162 
M294.189880,75.536705 
	C295.507050,75.550476 296.829773,75.647354 298.140106,75.559395 
	C300.348114,75.411171 300.691498,73.831604 300.636475,72.032600 
	C300.557922,69.466316 300.162567,66.855217 297.445190,65.894638 
	C295.569702,65.231659 294.208527,66.970154 293.775879,68.467003 
	C293.146332,70.645294 291.122406,72.952545 294.189880,75.536705 
z"/>
<path fill="#000000" opacity="1.000000" stroke="none" 
	d="
M163.532822,89.094589 
	C160.702301,82.322113 161.073517,76.060997 164.426437,70.004753 
	C167.975388,63.594418 175.692917,60.809082 182.510422,63.387714 
	C184.432449,64.114693 186.048874,65.220505 187.163330,66.980919 
	C188.402176,68.937828 188.789429,71.036095 187.716476,73.138466 
	C186.764236,75.004341 184.991776,75.457039 183.025589,75.225189 
	C180.494705,74.926743 179.393021,73.174583 178.726746,70.963760 
	C178.137100,69.007278 178.385880,65.870384 175.494003,66.212044 
	C172.845078,66.524986 172.454437,69.432884 172.322235,71.800468 
	C172.071381,76.293159 171.955521,80.765793 173.826675,85.056313 
	C176.676544,91.590981 180.242447,92.766838 186.151825,88.982948 
	C186.677048,88.646652 187.270462,88.416885 187.923218,88.092400 
	C188.263382,92.021019 185.766739,94.961464 180.888626,96.682732 
	C174.036987,99.100365 168.284866,96.681625 163.532822,89.094589 
z"/>
<path fill="#000000" opacity="1.000000" stroke="none" 
	d="
M206.312164,73.038033 
	C206.313293,77.864777 206.332230,82.196007 206.308258,86.527008 
	C206.290085,89.808815 205.844528,93.185043 209.975052,96.066238 
	C203.422684,96.066238 198.187393,96.066238 193.496994,96.066238 
	C196.900421,85.398895 196.617355,74.978493 193.715179,64.309967 
	C203.174454,61.240055 206.287567,63.100483 206.312164,73.038033 
z"/>
<path fill="#000000" opacity="1.000000" stroke="none" 
	d="
M195.516724,54.582268 
	C195.212280,52.131729 195.442459,50.162624 197.304977,48.874271 
	C199.753784,47.180370 202.334625,47.101669 204.651215,49.032398 
	C206.874557,50.885391 207.080505,53.407986 205.711304,55.777649 
	C204.147324,58.484455 201.477890,58.774082 198.716248,57.957226 
	C197.245651,57.522243 196.132690,56.490772 195.516724,54.582268 
z"/>
</svg>