<svg version="1.1" id="Layer_1" xmlns="http://www.w3.org/2000/svg" xmlns:xlink="http://www.w3.org/1999/xlink" x="0px" y="0px"
	 width="100%" viewBox="0 0 416 122" enable-background="new 0 0 416 122" xml:space="preserve">
<path fill="#272727" opacity="1.000000" stroke="none" 
	d="
M272.000000,123.000000 
	C181.333344,123.000000 91.166687,123.000000 1.000024,123.000000 
	C1.000016,82.333351 1.000016,41.666698 1.000008,1.000035 
	C139.666641,1.000023 278.333282,1.000023 416.999939,1.000012 
	C416.999939,41.666630 416.999939,82.333260 416.999969,122.999939 
	C368.833344,123.000000 320.666656,123.000000 272.000000,123.000000 
M31.369226,57.921635 
	C36.451538,56.943871 39.505684,58.964699 41.858807,63.656322 
	C45.126553,70.171501 49.606445,76.081596 52.833847,82.613197 
	C55.346134,87.697556 58.647598,89.163940 64.165985,87.441124 
	C58.020016,77.380516 51.951603,67.446854 45.731194,57.264378 
	C47.176151,57.003006 48.011929,56.932449 48.798473,56.697254 
	C58.074310,53.923550 62.290283,48.185146 62.007694,38.763027 
	C61.765038,30.672356 57.041748,24.856995 47.555798,23.756781 
	C38.781948,22.739162 29.797184,23.540003 20.957298,23.540003 
	C20.957298,45.022469 20.957298,66.403442 20.957298,87.749023 
	C23.233149,87.749023 25.161551,87.749023 27.387020,87.749023 
	C27.387020,78.841965 27.413305,70.192780 27.368507,61.543957 
	C27.357334,59.386822 27.287348,57.372814 31.369226,57.921635 
M195.063538,51.610683 
	C195.063538,71.011124 195.063538,90.411560 195.063538,109.734360 
	C197.596558,109.734360 199.515808,109.734360 201.801605,109.734360 
	C201.801605,104.995544 201.801620,100.534195 201.801620,96.072845 
	C201.801620,91.539825 201.801605,87.006798 201.801605,81.855049 
	C212.138519,90.995102 225.016891,91.331619 233.491379,83.316032 
	C241.711639,75.540916 243.166550,61.275326 235.674942,52.526066 
	C232.539322,48.864056 227.683426,45.789330 223.040405,44.504021 
	C215.405182,42.390396 208.076279,44.668911 201.970779,50.960983 
	C201.838348,48.602962 201.748062,46.995216 201.655167,45.341209 
	C199.329971,45.341209 197.299942,45.341209 195.063538,45.341209 
	C195.063538,47.350895 195.063538,48.998169 195.063538,51.610683 
M384.240540,85.537323 
	C387.372955,89.689171 391.471588,87.699677 395.305481,87.756264 
	C387.781219,79.839729 380.479279,72.157112 372.951416,64.236794 
	C379.600372,58.159420 386.447388,51.901028 393.821228,45.161106 
	C382.788116,44.944607 386.126129,43.765953 378.994415,50.456585 
	C374.517456,54.656658 370.043945,58.860435 364.706909,63.871967 
	C364.706909,47.722828 364.706909,32.970230 364.706909,18.240646 
	C362.434052,18.240646 360.514160,18.240646 358.451202,18.240646 
	C358.451202,41.552731 358.451202,64.596207 358.451202,87.828293 
	C360.632507,87.828293 362.553558,87.828293 365.124298,87.828293 
	C365.124298,80.513916 365.124298,73.372093 365.124298,65.377960 
	C371.846008,72.431458 377.808838,78.688606 384.240540,85.537323 
M254.861938,80.567230 
	C264.835114,92.465164 281.516235,92.137146 291.084930,79.533691 
	C289.599365,78.373070 288.108765,77.208519 286.647125,76.066589 
	C279.876740,83.114052 273.548645,85.074104 266.932495,82.359123 
	C260.807983,79.845886 257.475830,74.848473 257.510437,67.791023 
	C269.261902,67.791023 281.019867,67.791023 292.742035,67.791023 
	C293.256256,57.172150 289.654938,49.515091 282.073822,46.079075 
	C273.696533,42.282215 265.455078,42.947048 258.178406,48.838589 
	C249.149277,56.148991 247.729492,68.942284 254.861938,80.567230 
M329.804413,88.761307 
	C335.270935,87.369263 339.885834,84.717476 343.353271,79.619186 
	C341.781067,78.342659 340.319214,77.155724 338.880707,75.987755 
	C332.257446,83.260704 325.587738,85.207787 318.730896,82.139236 
	C312.590057,79.391106 309.484222,74.392784 310.145782,67.844910 
	C321.674652,67.844910 333.250549,67.844910 344.788971,67.844910 
	C345.550629,54.866619 339.382355,45.882915 328.816071,44.134995 
	C317.233582,42.218967 306.587891,48.428558 303.564514,59.396694 
	C298.916016,76.260468 310.769836,91.397285 329.804413,88.761307 
M108.197266,50.333935 
	C98.558334,41.190872 84.418121,41.719185 75.958313,51.538460 
	C67.842728,60.958199 69.481621,77.057861 79.323654,84.597839 
	C89.493935,92.389282 104.388115,90.072792 111.403595,79.503494 
	C110.052322,78.376038 108.690346,77.239647 107.065514,75.883942 
	C101.844696,82.795494 95.232178,85.236244 87.244408,82.220879 
	C81.074280,79.891663 77.934593,74.764923 78.131783,67.997612 
	C89.718102,67.997612 101.321960,67.997612 113.187843,67.997612 
	C113.676537,61.499195 112.652794,55.819145 108.197266,50.333935 
M152.520828,88.390862 
	C156.054764,86.436493 159.588699,84.482132 163.859665,82.120163 
	C161.206940,80.233498 159.661667,79.134476 158.193039,78.089966 
	C150.389481,84.921494 141.494781,85.205185 135.208649,79.068283 
	C128.807739,72.819336 127.989952,61.728420 134.221786,55.141235 
	C136.735733,52.483944 140.749084,50.781975 144.392593,49.765743 
	C149.776093,48.264206 154.212021,51.101479 157.815872,55.002785 
	C158.814651,54.242359 159.484039,53.759922 160.122421,53.239471 
	C160.846268,52.649357 161.542328,52.025192 162.244675,51.420815 
	C155.428421,43.171024 143.290344,41.452885 133.638168,47.160881 
	C124.518539,52.553947 120.747154,64.528107 124.829826,75.127396 
	C128.857300,85.583389 137.634659,90.013351 152.520828,88.390862 
M178.932266,47.773197 
	C178.311569,42.280739 174.641663,46.055599 172.377640,45.104866 
	C172.377640,59.679813 172.377640,73.746819 172.377640,87.793686 
	C174.628677,87.793686 176.566544,87.793686 178.933228,87.793686 
	C178.933228,74.623177 178.933228,61.674416 178.932266,47.773197 
M175.507431,33.018532 
	C179.843430,31.516781 181.470200,28.606997 179.117203,25.978302 
	C178.101334,24.843405 175.829178,23.940773 174.452545,24.274113 
	C173.098358,24.602018 171.054489,26.867224 171.269196,27.858860 
	C171.673859,29.727936 173.483826,31.292751 175.507431,33.018532 
z"/>
<path fill="#F1F1F1" opacity="1.000000" stroke="none" 
	d="
M30.885813,57.922215 
	C27.287348,57.372814 27.357334,59.386822 27.368507,61.543957 
	C27.413305,70.192780 27.387020,78.841965 27.387020,87.749023 
	C25.161551,87.749023 23.233149,87.749023 20.957298,87.749023 
	C20.957298,66.403442 20.957298,45.022469 20.957298,23.540003 
	C29.797184,23.540003 38.781948,22.739162 47.555798,23.756781 
	C57.041748,24.856995 61.765038,30.672356 62.007694,38.763027 
	C62.290283,48.185146 58.074310,53.923550 48.798473,56.697254 
	C48.011929,56.932449 47.176151,57.003006 45.731194,57.264378 
	C51.951603,67.446854 58.020016,77.380516 64.165985,87.441124 
	C58.647598,89.163940 55.346134,87.697556 52.833847,82.613197 
	C49.606445,76.081596 45.126553,70.171501 41.858807,63.656322 
	C39.505684,58.964699 36.451538,56.943871 30.885813,57.922215 
M39.341904,28.909098 
	C35.433647,28.909098 31.525391,28.909098 27.591274,28.909098 
	C27.591274,36.960159 27.591274,44.229321 27.591274,52.385895 
	C34.090698,51.907566 40.379379,51.856625 46.518711,50.873245 
	C52.276268,49.951023 55.213860,45.842766 55.223766,40.378571 
	C55.234093,34.682400 52.604881,31.335976 46.663441,29.825256 
	C44.592434,29.298664 42.412048,29.202246 39.341904,28.909098 
z"/>
<path fill="#ECECEC" opacity="1.000000" stroke="none" 
	d="
M195.063538,51.128059 
	C195.063538,48.998169 195.063538,47.350895 195.063538,45.341209 
	C197.299942,45.341209 199.329971,45.341209 201.655167,45.341209 
	C201.748062,46.995216 201.838348,48.602962 201.970779,50.960983 
	C208.076279,44.668911 215.405182,42.390396 223.040405,44.504021 
	C227.683426,45.789330 232.539322,48.864056 235.674942,52.526066 
	C243.166550,61.275326 241.711639,75.540916 233.491379,83.316032 
	C225.016891,91.331619 212.138519,90.995102 201.801605,81.855049 
	C201.801605,87.006798 201.801620,91.539825 201.801620,96.072845 
	C201.801620,100.534195 201.801605,104.995544 201.801605,109.734360 
	C199.515808,109.734360 197.596558,109.734360 195.063538,109.734360 
	C195.063538,90.411560 195.063538,71.011124 195.063538,51.128059 
M201.019119,63.951855 
	C200.993820,65.116890 200.903122,66.284775 200.953598,67.446518 
	C201.348907,76.541939 208.462234,83.501457 217.355530,83.524109 
	C226.096100,83.546371 232.698135,77.442566 233.178757,68.894989 
	C233.814072,57.596531 228.734573,50.560471 219.191360,49.519802 
	C210.439178,48.565392 204.310593,53.176113 201.019119,63.951855 
z"/>
<path fill="#EAEAEA" opacity="1.000000" stroke="none" 
	d="
M384.006104,85.241547 
	C377.808838,78.688606 371.846008,72.431458 365.124298,65.377960 
	C365.124298,73.372093 365.124298,80.513916 365.124298,87.828293 
	C362.553558,87.828293 360.632507,87.828293 358.451202,87.828293 
	C358.451202,64.596207 358.451202,41.552731 358.451202,18.240646 
	C360.514160,18.240646 362.434052,18.240646 364.706909,18.240646 
	C364.706909,32.970230 364.706909,47.722828 364.706909,63.871967 
	C370.043945,58.860435 374.517456,54.656658 378.994415,50.456585 
	C386.126129,43.765953 382.788116,44.944607 393.821228,45.161106 
	C386.447388,51.901028 379.600372,58.159420 372.951416,64.236794 
	C380.479279,72.157112 387.781219,79.839729 395.305481,87.756264 
	C391.471588,87.699677 387.372955,89.689171 384.006104,85.241547 
z"/>
<path fill="#EDEDED" opacity="1.000000" stroke="none" 
	d="
M254.635315,80.283287 
	C247.729492,68.942284 249.149277,56.148991 258.178406,48.838589 
	C265.455078,42.947048 273.696533,42.282215 282.073822,46.079075 
	C289.654938,49.515091 293.256256,57.172150 292.742035,67.791023 
	C281.019867,67.791023 269.261902,67.791023 257.510437,67.791023 
	C257.475830,74.848473 260.807983,79.845886 266.932495,82.359123 
	C273.548645,85.074104 279.876740,83.114052 286.647125,76.066589 
	C288.108765,77.208519 289.599365,78.373070 291.084930,79.533691 
	C281.516235,92.137146 264.835114,92.465164 254.635315,80.283287 
M263.760956,51.927799 
	C260.041962,54.635509 257.495392,57.991306 257.431671,62.666809 
	C267.111481,62.666809 276.510437,62.666809 285.923035,62.666809 
	C284.999695,51.050255 275.783142,46.390976 263.760956,51.927799 
z"/>
<path fill="#EFEFEF" opacity="1.000000" stroke="none" 
	d="
M329.376465,88.819908 
	C310.769836,91.397285 298.916016,76.260468 303.564514,59.396694 
	C306.587891,48.428558 317.233582,42.218967 328.816071,44.134995 
	C339.382355,45.882915 345.550629,54.866619 344.788971,67.844910 
	C333.250549,67.844910 321.674652,67.844910 310.145782,67.844910 
	C309.484222,74.392784 312.590057,79.391106 318.730896,82.139236 
	C325.587738,85.207787 332.257446,83.260704 338.880707,75.987755 
	C340.319214,77.155724 341.781067,78.342659 343.353271,79.619186 
	C339.885834,84.717476 335.270935,87.369263 329.376465,88.819908 
M321.513062,62.991749 
	C326.970856,62.991749 332.428680,62.991749 337.873352,62.991749 
	C338.095764,54.632309 332.984772,49.495880 324.690002,49.387939 
	C316.511871,49.281517 310.035187,55.212009 310.093719,62.991749 
	C313.566406,62.991749 317.042511,62.991749 321.513062,62.991749 
z"/>
<path fill="#EEEEEE" opacity="1.000000" stroke="none" 
	d="
M108.429749,50.613697 
	C112.652794,55.819145 113.676537,61.499195 113.187843,67.997612 
	C101.321960,67.997612 89.718102,67.997612 78.131783,67.997612 
	C77.934593,74.764923 81.074280,79.891663 87.244408,82.220879 
	C95.232178,85.236244 101.844696,82.795494 107.065514,75.883942 
	C108.690346,77.239647 110.052322,78.376038 111.403595,79.503494 
	C104.388115,90.072792 89.493935,92.389282 79.323654,84.597839 
	C69.481621,77.057861 67.842728,60.958199 75.958313,51.538460 
	C84.418121,41.719185 98.558334,41.190872 108.429749,50.613697 
M85.789001,50.998283 
	C81.341568,53.658684 78.145752,57.131725 77.846474,62.747574 
	C87.580681,62.747574 96.972298,62.747574 106.380836,62.747574 
	C105.448547,51.585838 97.879036,47.101723 85.789001,50.998283 
z"/>
<path fill="#EBEBEB" opacity="1.000000" stroke="none" 
	d="
M152.125641,88.547554 
	C137.634659,90.013351 128.857300,85.583389 124.829826,75.127396 
	C120.747154,64.528107 124.518539,52.553947 133.638168,47.160881 
	C143.290344,41.452885 155.428421,43.171024 162.244675,51.420815 
	C161.542328,52.025192 160.846268,52.649357 160.122421,53.239471 
	C159.484039,53.759922 158.814651,54.242359 157.815872,55.002785 
	C154.212021,51.101479 149.776093,48.264206 144.392593,49.765743 
	C140.749084,50.781975 136.735733,52.483944 134.221786,55.141235 
	C127.989952,61.728420 128.807739,72.819336 135.208649,79.068283 
	C141.494781,85.205185 150.389481,84.921494 158.193039,78.089966 
	C159.661667,79.134476 161.206940,80.233498 163.859665,82.120163 
	C159.588699,84.482132 156.054764,86.436493 152.125641,88.547554 
z"/>
<path fill="#EDEDED" opacity="1.000000" stroke="none" 
	d="
M178.932739,48.249428 
	C178.933228,61.674416 178.933228,74.623177 178.933228,87.793686 
	C176.566544,87.793686 174.628677,87.793686 172.377640,87.793686 
	C172.377640,73.746819 172.377640,59.679813 172.377640,45.104866 
	C174.641663,46.055599 178.311569,42.280739 178.932739,48.249428 
z"/>
<path fill="#EAEAEA" opacity="1.000000" stroke="none" 
	d="
M175.108536,33.001286 
	C173.483826,31.292751 171.673859,29.727936 171.269196,27.858860 
	C171.054489,26.867224 173.098358,24.602018 174.452545,24.274113 
	C175.829178,23.940773 178.101334,24.843405 179.117203,25.978302 
	C181.470200,28.606997 179.843430,31.516781 175.108536,33.001286 
z"/>
<path fill="#2B2B2B" opacity="1.000000" stroke="none" 
	d="
M39.811760,28.909235 
	C42.412048,29.202246 44.592434,29.298664 46.663441,29.825256 
	C52.604881,31.335976 55.234093,34.682400 55.223766,40.378571 
	C55.213860,45.842766 52.276268,49.951023 46.518711,50.873245 
	C40.379379,51.856625 34.090698,51.907566 27.591274,52.385895 
	C27.591274,44.229321 27.591274,36.960159 27.591274,28.909098 
	C31.525391,28.909098 35.433647,28.909098 39.811760,28.909235 
z"/>
<path fill="#282828" opacity="1.000000" stroke="none" 
	d="
M201.069427,63.533749 
	C204.310593,53.176113 210.439178,48.565392 219.191360,49.519802 
	C228.734573,50.560471 233.814072,57.596531 233.178757,68.894989 
	C232.698135,77.442566 226.096100,83.546371 217.355530,83.524109 
	C208.462234,83.501457 201.348907,76.541939 200.953598,67.446518 
	C200.903122,66.284775 200.993820,65.116890 201.069427,63.533749 
z"/>
<path fill="#292929" opacity="1.000000" stroke="none" 
	d="
M264.086487,51.706551 
	C275.783142,46.390976 284.999695,51.050255 285.923035,62.666809 
	C276.510437,62.666809 267.111481,62.666809 257.431671,62.666809 
	C257.495392,57.991306 260.041962,54.635509 264.086487,51.706551 
z"/>
<path fill="#2A2A2A" opacity="1.000000" stroke="none" 
	d="
M321.015839,62.991749 
	C317.042511,62.991749 313.566406,62.991749 310.093719,62.991749 
	C310.035187,55.212009 316.511871,49.281517 324.690002,49.387939 
	C332.984772,49.495880 338.095764,54.632309 337.873352,62.991749 
	C332.428680,62.991749 326.970856,62.991749 321.015839,62.991749 
z"/>
<path fill="#2A2A2A" opacity="1.000000" stroke="none" 
	d="
M86.149841,50.871216 
	C97.879036,47.101723 105.448547,51.585838 106.380836,62.747574 
	C96.972298,62.747574 87.580681,62.747574 77.846474,62.747574 
	C78.145752,57.131725 81.341568,53.658684 86.149841,50.871216 
z"/>
</svg>