<svg version="1.1" id="Layer_1" xmlns="http://www.w3.org/2000/svg" xmlns:xlink="http://www.w3.org/1999/xlink" x="0px" y="0px"
	 width="100%" viewBox="0 0 330 106" enable-background="new 0 0 330 106" xml:space="preserve">
<path fill="#010101" opacity="1.000000" stroke="none" 
	d="
M231.000000,107.000000 
	C154.000015,107.000000 77.500046,107.000000 1.000051,107.000000 
	C1.000034,71.666702 1.000034,36.333401 1.000017,1.000075 
	C110.999931,1.000050 220.999863,1.000050 330.999817,1.000025 
	C330.999878,36.333256 330.999878,71.666512 330.999939,106.999886 
	C297.833344,107.000000 264.666656,107.000000 231.000000,107.000000 
M14.315111,60.408905 
	C21.530161,59.762169 25.869558,63.244709 28.234512,69.852112 
	C29.627138,73.742958 31.363850,77.509651 32.904686,81.348679 
	C35.055595,86.707718 37.040173,87.422577 43.354710,84.411545 
	C39.047810,75.313606 34.740810,66.215446 30.400425,57.046768 
	C37.867916,52.799175 40.649696,47.301979 38.804455,39.204594 
	C37.280674,32.517834 30.777267,28.169802 21.915915,28.011177 
	C17.422590,27.930742 12.920200,28.137688 8.434221,27.938042 
	C5.088500,27.789143 3.538095,28.880257 3.557235,32.428596 
	C3.649722,49.574547 3.603465,66.721230 3.639392,83.867584 
	C3.640659,84.472099 3.989552,85.075897 4.150375,85.595810 
	C11.787829,86.517433 11.797418,86.510048 11.799041,79.492081 
	C11.800234,74.331467 11.704940,69.167839 11.869729,64.012489 
	C11.908304,62.805656 12.824872,61.626888 14.315111,60.408905 
M191.105530,50.572868 
	C187.977432,47.820946 185.276245,43.891708 181.629745,42.569424 
	C174.671875,40.046402 168.580322,43.574638 163.258224,48.666927 
	C163.014450,46.441872 162.841370,44.862122 162.676376,43.356247 
	C160.381714,43.356247 158.483887,43.356247 156.066055,43.356247 
	C156.066055,45.338394 156.066055,46.966927 156.066055,48.595459 
	C156.066055,64.724258 156.063370,80.853050 156.067337,96.981850 
	C156.068970,103.627045 157.077271,104.296616 164.201813,101.879799 
	C164.201813,95.408577 164.201813,88.748230 164.201813,81.593185 
	C174.611511,91.806496 189.512955,87.046822 192.716721,73.241402 
	C194.438095,65.823845 194.319107,58.448368 191.105530,50.572868 
M295.602478,79.205833 
	C295.602478,81.308136 295.602478,83.410439 295.602478,85.638184 
	C298.561157,85.638184 300.772491,85.638184 303.577454,85.638184 
	C303.577454,78.290344 303.577454,71.299042 303.577454,63.003349 
	C308.976685,69.990479 313.837555,75.640671 317.935211,81.798668 
	C320.887573,86.235435 324.346130,86.681244 330.172089,85.182304 
	C323.754150,76.826408 317.810150,69.087570 311.910767,61.406822 
	C317.505920,55.609310 322.805695,50.117897 328.105469,44.626480 
	C323.338562,42.787811 319.834229,42.331673 316.737732,46.236465 
	C312.992615,50.959167 308.606598,55.173588 304.497925,59.607971 
	C304.119232,59.488907 303.740570,59.369843 303.361908,59.250778 
	C303.361908,47.615826 303.361908,35.980877 303.361908,24.254086 
	C300.518127,24.254086 298.416992,24.254086 295.602539,24.254086 
	C295.602539,42.427643 295.602539,60.347858 295.602478,79.205833 
M64.048592,42.109089 
	C50.634834,44.565384 46.870853,58.376431 48.537731,69.323990 
	C50.152950,79.932289 54.860786,85.797951 63.486439,86.636345 
	C68.815964,87.154366 74.360023,86.184273 79.727394,85.359261 
	C83.792442,84.734413 85.032593,82.005013 83.727531,78.919762 
	C77.262375,79.404388 71.197472,80.697220 65.335762,80.075226 
	C58.775822,79.379128 56.316605,74.372200 56.945454,66.288086 
	C57.263905,66.204269 57.582153,66.048103 57.900829,66.047234 
	C65.390984,66.026680 72.891914,65.778191 80.367424,66.106041 
	C84.996796,66.309067 86.110916,64.413193 85.865143,60.213482 
	C85.257812,49.835297 79.681679,40.570568 64.048592,42.109089 
M284.559174,57.133316 
	C281.918396,45.991344 276.670197,41.752739 265.803528,41.985676 
	C256.420807,42.186802 249.691910,47.989887 248.122879,58.227047 
	C247.384918,63.041908 247.490417,68.168312 248.253723,72.988861 
	C249.438873,80.473396 255.344208,86.150368 262.725647,86.690353 
	C267.931946,87.071228 273.287140,86.253143 278.498169,85.459892 
	C282.444672,84.859146 284.131653,82.310631 282.731995,78.879913 
	C276.479767,79.387680 270.429749,80.722099 264.573853,80.131531 
	C257.931915,79.461678 255.744965,75.129700 255.728607,66.016068 
	C262.860046,66.016068 269.996918,66.016258 277.133820,66.016022 
	C285.052368,66.015755 285.052368,66.015579 284.559174,57.133316 
M221.490295,41.985977 
	C211.360367,42.230476 204.928543,46.703773 203.015396,56.593681 
	C201.916153,62.276131 202.243637,68.496552 203.229050,74.252197 
	C204.390778,81.037575 209.393280,85.714859 216.124069,86.400856 
	C222.056580,87.005493 228.251312,85.909050 234.224899,84.924591 
	C238.038208,84.296150 238.506241,81.410004 237.282761,78.931168 
	C230.694931,79.417946 224.629852,80.714134 218.777817,80.071175 
	C212.320023,79.361664 209.543121,73.783852 210.425919,66.014053 
	C214.369064,66.014053 218.344711,66.014076 222.320358,66.014046 
	C226.478836,66.014008 230.659836,66.260468 234.783951,65.883957 
	C236.285767,65.746849 238.778397,64.256798 238.905823,63.161465 
	C240.164322,52.343166 234.854645,42.120724 221.490295,41.985977 
M104.703300,52.319244 
	C111.594177,44.665848 118.061272,49.682423 124.519920,53.541725 
	C126.755272,49.530651 125.929108,46.742283 122.591835,44.659477 
	C117.299789,41.356682 111.595268,41.054054 105.843018,43.022900 
	C96.698051,46.152992 92.703178,55.403893 94.003731,69.839828 
	C95.328804,84.547844 109.021141,91.799133 122.044800,84.708000 
	C125.864655,82.628166 127.153854,79.830193 124.758934,75.398506 
	C122.904045,76.576561 121.299805,77.676735 119.620880,78.647812 
	C111.781998,83.181801 103.355682,79.846275 102.388489,70.921623 
	C101.753723,65.064468 103.524330,58.946629 104.703300,52.319244 
M142.934982,61.500881 
	C142.934982,55.429722 142.934982,49.358562 142.934982,43.405399 
	C135.070038,42.556461 135.067291,42.556461 135.065643,49.313393 
	C135.063187,59.443329 135.063049,69.573265 135.065704,79.703201 
	C135.067505,86.611275 135.505478,86.940132 142.934982,85.193260 
	C142.934982,77.707062 142.934982,70.103813 142.934982,61.500881 
M134.661133,28.157160 
	C134.506332,29.125368 133.928604,30.305550 134.285355,31.017359 
	C135.012924,32.469013 136.099152,34.569054 137.301178,34.762241 
	C139.141251,35.057976 141.820709,34.539795 142.981796,33.288658 
	C143.950912,32.244370 144.023071,29.110943 143.139664,27.852041 
	C140.945419,24.725166 137.850494,25.293896 134.661133,28.157160 
z"/>
<path fill="#F7F7F7" opacity="1.000000" stroke="none" 
	d="
M13.826303,60.422058 
	C12.824872,61.626888 11.908304,62.805656 11.869729,64.012489 
	C11.704940,69.167839 11.800234,74.331467 11.799041,79.492081 
	C11.797418,86.510048 11.787829,86.517433 4.150375,85.595810 
	C3.989552,85.075897 3.640659,84.472099 3.639392,83.867584 
	C3.603465,66.721230 3.649722,49.574547 3.557235,32.428596 
	C3.538095,28.880257 5.088500,27.789143 8.434221,27.938042 
	C12.920200,28.137688 17.422590,27.930742 21.915915,28.011177 
	C30.777267,28.169802 37.280674,32.517834 38.804455,39.204594 
	C40.649696,47.301979 37.867916,52.799175 30.400425,57.046768 
	C34.740810,66.215446 39.047810,75.313606 43.354710,84.411545 
	C37.040173,87.422577 35.055595,86.707718 32.904686,81.348679 
	C31.363850,77.509651 29.627138,73.742958 28.234512,69.852112 
	C25.869558,63.244709 21.530161,59.762169 13.826303,60.422058 
M11.787135,40.618599 
	C11.787135,45.013523 11.787135,49.408451 11.787135,53.956142 
	C18.621914,53.866901 25.683002,55.455551 29.344725,48.834755 
	C30.798588,46.206017 30.596022,41.194489 28.983284,38.627602 
	C25.067661,32.395367 18.182882,34.889061 11.787134,34.333984 
	C11.787134,36.443565 11.787134,38.052139 11.787135,40.618599 
z"/>
<path fill="#F5F5F5" opacity="1.000000" stroke="none" 
	d="
M191.283783,50.916981 
	C194.319107,58.448368 194.438095,65.823845 192.716721,73.241402 
	C189.512955,87.046822 174.611511,91.806496 164.201813,81.593185 
	C164.201813,88.748230 164.201813,95.408577 164.201813,101.879799 
	C157.077271,104.296616 156.068970,103.627045 156.067337,96.981850 
	C156.063370,80.853050 156.066055,64.724258 156.066055,48.595459 
	C156.066055,46.966927 156.066055,45.338394 156.066055,43.356247 
	C158.483887,43.356247 160.381714,43.356247 162.676376,43.356247 
	C162.841370,44.862122 163.014450,46.441872 163.258224,48.666927 
	C168.580322,43.574638 174.671875,40.046402 181.629745,42.569424 
	C185.276245,43.891708 187.977432,47.820946 191.283783,50.916981 
M166.136383,53.921818 
	C165.432281,54.828693 164.153564,55.714321 164.119110,56.645958 
	C163.923203,61.943851 163.615372,67.295944 164.169632,72.542557 
	C164.534103,75.992599 171.666687,80.647377 175.323029,80.569504 
	C180.165070,80.466362 183.139069,77.598099 184.058792,73.184746 
	C184.919434,69.054909 185.139542,64.736847 185.154327,60.499920 
	C185.171173,55.674095 183.872803,51.020504 178.908615,49.058941 
	C173.887268,47.074783 169.981674,49.727116 166.136383,53.921818 
z"/>
<path fill="#F9F9F9" opacity="1.000000" stroke="none" 
	d="
M295.602509,78.736954 
	C295.602539,60.347858 295.602539,42.427643 295.602539,24.254086 
	C298.416992,24.254086 300.518127,24.254086 303.361908,24.254086 
	C303.361908,35.980877 303.361908,47.615826 303.361908,59.250778 
	C303.740570,59.369843 304.119232,59.488907 304.497925,59.607971 
	C308.606598,55.173588 312.992615,50.959167 316.737732,46.236465 
	C319.834229,42.331673 323.338562,42.787811 328.105469,44.626480 
	C322.805695,50.117897 317.505920,55.609310 311.910767,61.406822 
	C317.810150,69.087570 323.754150,76.826408 330.172089,85.182304 
	C324.346130,86.681244 320.887573,86.235435 317.935211,81.798668 
	C313.837555,75.640671 308.976685,69.990479 303.577454,63.003349 
	C303.577454,71.299042 303.577454,78.290344 303.577454,85.638184 
	C300.772491,85.638184 298.561157,85.638184 295.602478,85.638184 
	C295.602478,83.410439 295.602478,81.308136 295.602509,78.736954 
z"/>
<path fill="#F5F5F5" opacity="1.000000" stroke="none" 
	d="
M64.483002,42.079170 
	C79.681679,40.570568 85.257812,49.835297 85.865143,60.213482 
	C86.110916,64.413193 84.996796,66.309067 80.367424,66.106041 
	C72.891914,65.778191 65.390984,66.026680 57.900829,66.047234 
	C57.582153,66.048103 57.263905,66.204269 56.946178,66.290833 
	C56.316605,74.372200 58.775822,79.379128 65.335762,80.075226 
	C71.197472,80.697220 77.262375,79.404388 83.727531,78.919762 
	C85.032593,82.005013 83.792442,84.734413 79.727394,85.359261 
	C74.360023,86.184273 68.815964,87.154366 63.486439,86.636345 
	C54.860786,85.797951 50.152950,79.932289 48.537731,69.323990 
	C46.870853,58.376431 50.634834,44.565384 64.483002,42.079170 
M59.688450,51.241020 
	C58.501453,53.969677 57.314453,56.698338 55.949966,59.835003 
	C64.019409,59.835003 70.956383,59.835003 78.081505,59.835003 
	C77.814034,55.294216 77.022911,51.214573 72.755165,49.099731 
	C68.346237,46.914928 64.067299,47.444305 59.688450,51.241020 
z"/>
<path fill="#F5F5F5" opacity="1.000000" stroke="none" 
	d="
M284.639984,57.547653 
	C285.052368,66.015579 285.052368,66.015755 277.133820,66.016022 
	C269.996918,66.016258 262.860046,66.016068 255.728607,66.016068 
	C255.744965,75.129700 257.931915,79.461678 264.573853,80.131531 
	C270.429749,80.722099 276.479767,79.387680 282.731995,78.879913 
	C284.131653,82.310631 282.444672,84.859146 278.498169,85.459892 
	C273.287140,86.253143 267.931946,87.071228 262.725647,86.690353 
	C255.344208,86.150368 249.438873,80.473396 248.253723,72.988861 
	C247.490417,68.168312 247.384918,63.041908 248.122879,58.227047 
	C249.691910,47.989887 256.420807,42.186802 265.803528,41.985676 
	C276.670197,41.752739 281.918396,45.991344 284.639984,57.547653 
M258.688477,51.240993 
	C257.501465,53.969666 256.314453,56.698341 254.949966,59.835003 
	C263.019409,59.835003 269.956390,59.835003 277.081451,59.835003 
	C276.814178,55.294144 276.022858,51.214581 271.755157,49.099743 
	C267.346222,46.914928 263.067291,47.444294 258.688477,51.240993 
z"/>
<path fill="#F6F6F6" opacity="1.000000" stroke="none" 
	d="
M221.930786,41.986080 
	C234.854645,42.120724 240.164322,52.343166 238.905823,63.161465 
	C238.778397,64.256798 236.285767,65.746849 234.783951,65.883957 
	C230.659836,66.260468 226.478836,66.014008 222.320358,66.014046 
	C218.344711,66.014076 214.369064,66.014053 210.425919,66.014053 
	C209.543121,73.783852 212.320023,79.361664 218.777817,80.071175 
	C224.629852,80.714134 230.694931,79.417946 237.282761,78.931168 
	C238.506241,81.410004 238.038208,84.296150 234.224899,84.924591 
	C228.251312,85.909050 222.056580,87.005493 216.124069,86.400856 
	C209.393280,85.714859 204.390778,81.037575 203.229050,74.252197 
	C202.243637,68.496552 201.916153,62.276131 203.015396,56.593681 
	C204.928543,46.703773 211.360367,42.230476 221.930786,41.986080 
M221.447845,47.929672 
	C214.024612,48.502750 210.873459,51.779644 210.161728,59.752201 
	C217.207138,59.752201 224.239914,59.752201 231.286011,59.752201 
	C230.812637,51.703220 229.104797,49.521011 221.447845,47.929672 
z"/>
<path fill="#F4F4F4" opacity="1.000000" stroke="none" 
	d="
M104.460495,52.632389 
	C103.524330,58.946629 101.753723,65.064468 102.388489,70.921623 
	C103.355682,79.846275 111.781998,83.181801 119.620880,78.647812 
	C121.299805,77.676735 122.904045,76.576561 124.758934,75.398506 
	C127.153854,79.830193 125.864655,82.628166 122.044800,84.708000 
	C109.021141,91.799133 95.328804,84.547844 94.003731,69.839828 
	C92.703178,55.403893 96.698051,46.152992 105.843018,43.022900 
	C111.595268,41.054054 117.299789,41.356682 122.591835,44.659477 
	C125.929108,46.742283 126.755272,49.530651 124.519920,53.541725 
	C118.061272,49.682423 111.594177,44.665848 104.460495,52.632389 
z"/>
<path fill="#F5F5F5" opacity="1.000000" stroke="none" 
	d="
M142.934982,62.000725 
	C142.934982,70.103813 142.934982,77.707062 142.934982,85.193260 
	C135.505478,86.940132 135.067505,86.611275 135.065704,79.703201 
	C135.063049,69.573265 135.063187,59.443329 135.065643,49.313393 
	C135.067291,42.556461 135.070038,42.556461 142.934982,43.405399 
	C142.934982,49.358562 142.934982,55.429722 142.934982,62.000725 
z"/>
<path fill="#F0F0F0" opacity="1.000000" stroke="none" 
	d="
M134.827850,27.783237 
	C137.850494,25.293896 140.945419,24.725166 143.139664,27.852041 
	C144.023071,29.110943 143.950912,32.244370 142.981796,33.288658 
	C141.820709,34.539795 139.141251,35.057976 137.301178,34.762241 
	C136.099152,34.569054 135.012924,32.469013 134.285355,31.017359 
	C133.928604,30.305550 134.506332,29.125368 134.827850,27.783237 
z"/>
<path fill="#060606" opacity="1.000000" stroke="none" 
	d="
M11.787134,40.139656 
	C11.787134,38.052139 11.787134,36.443565 11.787134,34.333984 
	C18.182882,34.889061 25.067661,32.395367 28.983284,38.627602 
	C30.596022,41.194489 30.798588,46.206017 29.344725,48.834755 
	C25.683002,55.455551 18.621914,53.866901 11.787135,53.956142 
	C11.787135,49.408451 11.787135,45.013523 11.787134,40.139656 
z"/>
<path fill="#040404" opacity="1.000000" stroke="none" 
	d="
M166.396866,53.635971 
	C169.981674,49.727116 173.887268,47.074783 178.908615,49.058941 
	C183.872803,51.020504 185.171173,55.674095 185.154327,60.499920 
	C185.139542,64.736847 184.919434,69.054909 184.058792,73.184746 
	C183.139069,77.598099 180.165070,80.466362 175.323029,80.569504 
	C171.666687,80.647377 164.534103,75.992599 164.169632,72.542557 
	C163.615372,67.295944 163.923203,61.943851 164.119110,56.645958 
	C164.153564,55.714321 165.432281,54.828693 166.396866,53.635971 
z"/>
<path fill="#040404" opacity="1.000000" stroke="none" 
	d="
M59.964272,50.964973 
	C64.067299,47.444305 68.346237,46.914928 72.755165,49.099731 
	C77.022911,51.214573 77.814034,55.294216 78.081505,59.835003 
	C70.956383,59.835003 64.019409,59.835003 55.949966,59.835003 
	C57.314453,56.698338 58.501453,53.969677 59.964272,50.964973 
z"/>
<path fill="#040404" opacity="1.000000" stroke="none" 
	d="
M258.964294,50.964970 
	C263.067291,47.444294 267.346222,46.914928 271.755157,49.099743 
	C276.022858,51.214581 276.814178,55.294144 277.081451,59.835003 
	C269.956390,59.835003 263.019409,59.835003 254.949966,59.835003 
	C256.314453,56.698341 257.501465,53.969666 258.964294,50.964970 
z"/>
<path fill="#030303" opacity="1.000000" stroke="none" 
	d="
M221.857635,47.931793 
	C229.104797,49.521011 230.812637,51.703220 231.286011,59.752201 
	C224.239914,59.752201 217.207138,59.752201 210.161728,59.752201 
	C210.873459,51.779644 214.024612,48.502750 221.857635,47.931793 
z"/>
</svg>