<svg version="1.1" id="Layer_1" xmlns="http://www.w3.org/2000/svg" xmlns:xlink="http://www.w3.org/1999/xlink" x="0px" y="0px"
	 width="100%" viewBox="0 0 357 125" enable-background="new 0 0 357 125" xml:space="preserve">
<path fill="#FFFFFF" opacity="1.000000" stroke="none" 
	d="
M358.000000,8.000000 
	C358.000000,47.304298 358.000000,86.608597 358.000000,125.956451 
	C239.116898,125.956451 120.233772,125.956451 1.000000,125.956451 
	C1.000000,86.979805 1.000000,47.958561 1.463241,8.471616 
	C6.225935,8.009496 10.525386,8.013074 14.897100,8.479338 
	C14.969364,45.521629 14.969364,82.101234 14.969364,118.686264 
	C126.926079,118.686264 238.383591,118.686264 350.002411,118.686264 
	C350.002411,112.889648 349.994171,107.408310 350.003784,101.927010 
	C350.058533,70.623642 350.117554,39.320274 350.607971,8.014414 
	C353.360504,8.007947 355.680267,8.003974 358.000000,8.000000 
z"/>
<path fill="#ACACAC" opacity="1.000000" stroke="none" 
	d="
M2.000000,1.000000 
	C120.022011,1.000000 238.044022,1.000000 356.420135,1.349407 
	C356.784943,2.187695 356.795685,2.676575 356.350769,3.196173 
	C294.541260,3.228184 233.187378,3.221568 171.833542,3.267626 
	C169.923721,3.269059 168.014328,3.815621 165.643906,4.069591 
	C160.221237,4.315184 155.259750,4.838311 150.297485,4.845789 
	C107.167313,4.910785 64.036987,4.874255 20.906750,4.912735 
	C18.965366,4.914467 17.024370,5.346557 14.624643,5.634016 
	C9.777396,5.126557 5.388698,4.563279 1.000000,4.000000 
	C1.000000,4.000000 1.000000,3.500000 1.272941,3.088344 
	C1.697254,2.117792 1.848627,1.558896 2.000000,1.000000 
z"/>
<path fill="#DADADA" opacity="1.000000" stroke="none" 
	d="
M166.104736,4.108043 
	C168.014328,3.815621 169.923721,3.269059 171.833542,3.267626 
	C233.187378,3.221568 294.541260,3.228184 356.655487,3.193334 
	C357.610565,3.106519 357.805267,3.053260 358.000000,3.000000 
	C358.000000,3.444444 358.000000,3.888889 357.537842,4.678473 
	C354.555420,5.635514 352.035156,6.247415 349.086365,6.935312 
	C327.038727,7.016449 305.419617,7.040499 283.800537,7.022412 
	C249.212723,6.993476 214.624924,6.936583 179.884247,6.464844 
	C177.879227,5.692129 176.037140,5.272338 174.172531,5.017613 
	C171.491867,4.651408 168.794800,4.405371 166.104736,4.108043 
z"/>
<path fill="#E9E9E9" opacity="1.000000" stroke="none" 
	d="
M1.000000,4.399996 
	C5.388698,4.563279 9.777396,5.126557 14.616550,6.029460 
	C15.069430,6.630338 15.071853,6.891591 15.035397,7.375577 
	C14.996519,7.598310 14.824838,8.016652 14.824838,8.016652 
	C10.525386,8.013074 6.225935,8.009496 1.463241,8.002958 
	C1.000000,6.933331 1.000000,5.866662 1.000000,4.399996 
z"/>
<path fill="#E9E9E9" opacity="1.000000" stroke="none" 
	d="
M349.514862,6.859315 
	C352.035156,6.247415 354.555420,5.635514 357.537842,5.011807 
	C358.000000,5.750000 358.000000,6.500000 358.000000,7.625000 
	C355.680267,8.003974 353.360504,8.007947 350.516113,7.810978 
	C349.877808,7.331081 349.718964,7.080841 349.514862,6.859315 
z"/>
<path fill="#939393" opacity="1.000000" stroke="none" 
	d="
M358.000000,2.500000 
	C357.805267,3.053260 357.610565,3.106519 357.111145,3.162617 
	C356.795685,2.676575 356.784943,2.187695 356.887115,1.349407 
	C357.333344,1.333333 357.666656,1.666666 358.000000,2.500000 
z"/>
<path fill="#939393" opacity="1.000000" stroke="none" 
	d="
M1.500000,1.000000 
	C1.848627,1.558896 1.697254,2.117792 1.272941,2.838344 
	C1.000000,2.333333 1.000000,1.666667 1.500000,1.000000 
z"/>
<path fill="#010101" opacity="1.000000" stroke="none" 
	d="
M349.086365,6.935311 
	C349.718964,7.080841 349.877808,7.331081 350.083282,7.813470 
	C350.117554,39.320274 350.058533,70.623642 350.003784,101.927010 
	C349.994171,107.408310 350.002411,112.889648 350.002411,118.686264 
	C238.383591,118.686264 126.926079,118.686264 14.969364,118.686264 
	C14.969364,82.101234 14.969364,45.521629 14.897100,8.479338 
	C14.824838,8.016652 14.996519,7.598310 15.497440,7.331443 
	C49.905899,7.061409 83.813454,7.076742 117.720970,7.048222 
	C138.493057,7.030751 159.265076,6.946029 180.037125,6.891508 
	C214.624924,6.936583 249.212723,6.993476 283.800537,7.022412 
	C305.419617,7.040499 327.038727,7.016449 349.086365,6.935311 
M40.274288,35.987247 
	C36.111774,35.986908 31.935349,36.197990 27.790760,35.925251 
	C23.848417,35.665821 22.475050,37.169827 22.534891,41.074200 
	C22.703281,52.060677 22.593660,63.051411 22.593655,74.040466 
	C22.593651,80.507240 22.593655,86.974014 22.593655,93.332901 
	C30.499706,94.844902 30.798498,94.609016 30.799486,87.336349 
	C30.800335,81.089325 30.799660,74.842308 30.799660,68.666214 
	C41.148224,67.982796 43.791214,69.607033 47.484695,78.484749 
	C48.946697,81.998840 50.378876,85.525566 51.796791,89.057716 
	C54.110241,94.820747 55.110748,95.242203 62.446026,92.689629 
	C58.114410,83.499031 53.831799,74.412399 49.439129,65.092247 
	C53.284382,62.982849 57.582798,59.754116 57.991825,53.481842 
	C58.701180,42.604221 53.034561,36.684444 40.274288,35.987247 
M206.211304,53.168278 
	C197.407089,47.119190 189.682785,49.848846 182.262039,56.659351 
	C182.056381,54.557674 181.903534,52.995583 181.733658,51.259548 
	C179.574615,51.259548 177.659195,51.259548 175.065765,51.259548 
	C175.065765,53.302746 175.065765,55.076336 175.065765,56.849926 
	C175.065765,72.815361 175.063995,88.780792 175.066605,104.746231 
	C175.067734,111.622025 175.622635,112.028252 183.020721,110.108910 
	C183.020721,103.566940 183.020721,96.877014 183.020721,89.562065 
	C184.536987,90.713905 185.408066,91.404564 186.308258,92.054916 
	C194.151138,97.721207 204.640915,95.438423 209.416046,86.957077 
	C214.384338,78.132599 214.199051,60.951786 206.211304,53.168278 
M322.399231,74.984726 
	C322.493042,74.090706 322.586884,73.196686 322.786499,71.294922 
	C327.929138,77.936569 332.813995,83.552017 336.868713,89.713722 
	C339.812164,94.186630 343.249359,94.745514 349.127014,93.129082 
	C342.795807,84.881729 336.847717,77.133400 329.115875,67.061485 
	C335.061066,62.274940 341.059998,57.445133 347.777161,52.037075 
	C342.365479,50.500576 338.927368,50.361553 335.819061,54.161747 
	C331.940216,58.904015 327.528259,63.210201 323.346466,67.704674 
	C322.965881,67.500298 322.585327,67.295921 322.204742,67.091545 
	C322.204742,55.523968 322.204742,43.956383 322.204742,32.233727 
	C319.585693,32.233727 317.483368,32.233727 314.991577,32.233727 
	C314.991577,52.816898 314.991577,73.157463 314.991577,93.646637 
	C317.547821,93.646637 319.761810,93.646637 322.398865,93.646637 
	C322.398865,87.491814 322.398865,81.690735 322.399231,74.984726 
M296.335571,74.016319 
	C299.240143,73.532158 303.734955,75.790833 303.857605,70.253365 
	C304.216156,54.067860 293.049530,46.802841 279.161682,51.046185 
	C269.570435,53.976723 264.447937,65.275375 266.511993,77.377228 
	C268.317139,87.961227 272.886658,93.819008 281.522064,94.642258 
	C286.850464,95.150246 292.389069,94.176147 297.753479,93.349525 
	C301.839050,92.719955 302.990082,89.962433 301.737457,86.919891 
	C295.248505,87.404388 289.183960,88.694839 283.322876,88.071632 
	C276.771637,87.375046 274.308472,82.351929 274.974518,74.016319 
	C281.757233,74.016319 288.564209,74.016319 296.335571,74.016319 
M87.418686,49.983826 
	C85.135208,50.276333 82.742233,50.227798 80.587029,50.919807 
	C70.748436,54.078850 65.401947,65.102898 67.529762,77.444244 
	C69.321556,87.836655 73.640060,93.602806 82.114326,94.555367 
	C87.579636,95.169716 93.304970,94.140480 98.832756,93.309166 
	C102.958488,92.688698 103.976303,89.880272 102.721031,86.936211 
	C96.156647,87.410583 90.086998,88.688026 84.226334,88.048973 
	C77.690620,87.336311 75.127419,82.025627 76.081970,74.015839 
	C84.195312,74.015839 92.345741,74.187286 100.476265,73.861671 
	C101.983162,73.801323 104.474892,71.918327 104.704880,70.568604 
	C106.535233,59.826900 99.137756,50.769947 87.418686,49.983826 
M255.722122,57.993774 
	C251.333344,50.665066 244.421753,49.090645 236.715988,50.171104 
	C229.502655,51.182514 223.911011,55.525372 222.633942,62.490211 
	C221.387726,69.286766 221.560776,76.641190 222.692642,83.489258 
	C223.744308,89.852180 229.151352,93.937698 235.434540,94.503799 
	C241.231552,95.026085 247.266602,94.008301 253.070679,92.966293 
	C257.000488,92.260780 257.732727,89.403320 255.615158,85.989311 
	C235.409943,90.896278 228.269348,87.677055 229.301529,74.014297 
	C235.744781,74.014297 242.215515,74.014290 248.686249,74.014290 
	C258.737610,74.014282 260.237610,71.912941 257.253082,61.946510 
	C256.922211,60.841545 256.427582,59.785603 255.722122,57.993774 
M144.788147,56.913357 
	C141.819687,50.854668 133.818390,48.226986 125.808846,50.680420 
	C115.974922,53.692684 111.655983,62.843365 113.002052,77.814659 
	C114.325470,92.533974 127.989410,99.790573 141.025787,92.717110 
	C144.846512,90.644005 146.153015,87.852600 143.763641,83.377510 
	C141.762360,84.636711 140.034424,85.853905 138.191513,86.860657 
	C130.750916,90.925316 123.386948,88.107788 121.640999,79.869347 
	C120.670776,75.291260 120.608200,70.181519 121.559174,65.607155 
	C123.461205,56.457989 131.192932,53.732277 139.059174,58.798542 
	C140.414688,59.671566 141.762543,60.556492 143.698166,61.816124 
	C144.166870,60.063911 144.485016,58.874535 144.788147,56.913357 
M161.934128,53.864475 
	C162.079300,49.829006 158.932968,50.816750 157.026642,51.165302 
	C155.873657,51.376106 154.217896,53.328861 154.194489,54.526447 
	C153.976959,65.656128 154.062119,76.791779 154.065903,87.925697 
	C154.068192,94.633842 154.929276,95.222893 161.626389,93.127159 
	C161.716736,92.814095 161.885468,92.501190 161.886124,92.187943 
	C161.911972,79.725410 161.922592,67.262848 161.934128,53.864475 
M155.212936,34.303104 
	C154.548492,35.398067 153.247818,36.563560 153.359665,37.572468 
	C153.557404,39.356312 154.190231,41.992142 155.416321,42.541801 
	C157.078430,43.286922 160.101456,43.120529 161.366394,42.008884 
	C162.548019,40.970448 163.154404,37.311058 162.297653,36.373356 
	C160.961044,34.910419 158.174515,34.772213 155.212936,34.303104 
z"/>
<path fill="#CECECE" opacity="1.000000" stroke="none" 
	d="
M179.884247,6.464843 
	C159.265076,6.946029 138.493057,7.030751 117.720970,7.048222 
	C83.813454,7.076742 49.905899,7.061409 15.536319,7.108711 
	C15.071853,6.891591 15.069430,6.630338 15.075100,5.973640 
	C17.024370,5.346557 18.965366,4.914467 20.906750,4.912735 
	C64.036987,4.874255 107.167313,4.910785 150.297485,4.845789 
	C155.259750,4.838311 160.221237,4.315184 165.643906,4.069589 
	C168.794800,4.405371 171.491867,4.651408 174.172531,5.017613 
	C176.037140,5.272338 177.879227,5.692129 179.884247,6.464843 
z"/>
<path fill="#F7F7F7" opacity="1.000000" stroke="none" 
	d="
M40.739826,35.994659 
	C53.034561,36.684444 58.701180,42.604221 57.991825,53.481842 
	C57.582798,59.754116 53.284382,62.982849 49.439129,65.092247 
	C53.831799,74.412399 58.114410,83.499031 62.446026,92.689629 
	C55.110748,95.242203 54.110241,94.820747 51.796791,89.057716 
	C50.378876,85.525566 48.946697,81.998840 47.484695,78.484749 
	C43.791214,69.607033 41.148224,67.982796 30.799660,68.666214 
	C30.799660,74.842308 30.800335,81.089325 30.799486,87.336349 
	C30.798498,94.609016 30.499706,94.844902 22.593655,93.332901 
	C22.593655,86.974014 22.593651,80.507240 22.593655,74.040466 
	C22.593660,63.051411 22.703281,52.060677 22.534891,41.074200 
	C22.475050,37.169827 23.848417,35.665821 27.790760,35.925251 
	C31.935349,36.197990 36.111774,35.986908 40.739826,35.994659 
M47.739613,58.114735 
	C50.379280,54.103664 50.732868,49.617027 47.818096,46.054207 
	C43.415943,40.673309 36.967033,42.764381 31.005154,42.398392 
	C31.005154,49.152637 31.005154,55.382347 31.005154,61.940113 
	C36.774540,61.853710 42.495403,63.018261 47.739613,58.114735 
z"/>
<path fill="#F5F5F5" opacity="1.000000" stroke="none" 
	d="
M206.494003,53.411556 
	C214.199051,60.951786 214.384338,78.132599 209.416046,86.957077 
	C204.640915,95.438423 194.151138,97.721207 186.308258,92.054916 
	C185.408066,91.404564 184.536987,90.713905 183.020721,89.562065 
	C183.020721,96.877014 183.020721,103.566940 183.020721,110.108910 
	C175.622635,112.028252 175.067734,111.622025 175.066605,104.746231 
	C175.063995,88.780792 175.065765,72.815361 175.065765,56.849926 
	C175.065765,55.076336 175.065765,53.302746 175.065765,51.259548 
	C177.659195,51.259548 179.574615,51.259548 181.733658,51.259548 
	C181.903534,52.995583 182.056381,54.557674 182.262039,56.659351 
	C189.682785,49.848846 197.407089,47.119190 206.494003,53.411556 
M189.554611,87.128128 
	C196.448776,89.927650 201.325348,88.313240 202.908783,81.240341 
	C204.161545,75.644524 204.338715,69.368820 203.171066,63.775475 
	C201.513550,55.835373 194.292923,54.120228 187.880569,59.273010 
	C180.100281,65.525024 180.639633,79.835144 189.554611,87.128128 
z"/>
<path fill="#F9F9F9" opacity="1.000000" stroke="none" 
	d="
M322.399048,75.437187 
	C322.398865,81.690735 322.398865,87.491814 322.398865,93.646637 
	C319.761810,93.646637 317.547821,93.646637 314.991577,93.646637 
	C314.991577,73.157463 314.991577,52.816898 314.991577,32.233727 
	C317.483368,32.233727 319.585693,32.233727 322.204742,32.233727 
	C322.204742,43.956383 322.204742,55.523968 322.204742,67.091545 
	C322.585327,67.295921 322.965881,67.500298 323.346466,67.704674 
	C327.528259,63.210201 331.940216,58.904015 335.819061,54.161747 
	C338.927368,50.361553 342.365479,50.500576 347.777161,52.037075 
	C341.059998,57.445133 335.061066,62.274940 329.115875,67.061485 
	C336.847717,77.133400 342.795807,84.881729 349.127014,93.129082 
	C343.249359,94.745514 339.812164,94.186630 336.868713,89.713722 
	C332.813995,83.552017 327.929138,77.936569 322.786499,71.294922 
	C322.586884,73.196686 322.493042,74.090706 322.399048,75.437187 
z"/>
<path fill="#F5F5F5" opacity="1.000000" stroke="none" 
	d="
M295.853394,74.016319 
	C288.564209,74.016319 281.757233,74.016319 274.974518,74.016319 
	C274.308472,82.351929 276.771637,87.375046 283.322876,88.071632 
	C289.183960,88.694839 295.248505,87.404388 301.737457,86.919891 
	C302.990082,89.962433 301.839050,92.719955 297.753479,93.349525 
	C292.389069,94.176147 286.850464,95.150246 281.522064,94.642258 
	C272.886658,93.819008 268.317139,87.961227 266.511993,77.377228 
	C264.447937,65.275375 269.570435,53.976723 279.161682,51.046185 
	C293.049530,46.802841 304.216156,54.067860 303.857605,70.253365 
	C303.734955,75.790833 299.240143,73.532158 295.853394,74.016319 
M283.882782,55.974392 
	C277.236450,58.071144 275.075562,60.905411 274.894012,67.897499 
	C281.847839,67.897499 288.797607,67.897499 295.741852,67.897499 
	C295.978973,59.736401 292.689117,56.222706 283.882782,55.974392 
z"/>
<path fill="#F5F5F5" opacity="1.000000" stroke="none" 
	d="
M87.859940,49.984695 
	C99.137756,50.769947 106.535233,59.826900 104.704880,70.568604 
	C104.474892,71.918327 101.983162,73.801323 100.476265,73.861671 
	C92.345741,74.187286 84.195312,74.015839 76.081970,74.015839 
	C75.127419,82.025627 77.690620,87.336311 84.226334,88.048973 
	C90.086998,88.688026 96.156647,87.410583 102.721031,86.936211 
	C103.976303,89.880272 102.958488,92.688698 98.832756,93.309166 
	C93.304970,94.140480 87.579636,95.169716 82.114326,94.555367 
	C73.640060,93.602806 69.321556,87.836655 67.529762,77.444244 
	C65.401947,65.102898 70.748436,54.078850 80.587029,50.919807 
	C82.742233,50.227798 85.135208,50.276333 87.859940,49.984695 
M93.338364,57.989624 
	C83.842079,53.046188 75.967941,57.488377 75.974899,67.877739 
	C82.929054,67.877739 89.881966,67.877739 97.951935,67.877739 
	C96.457657,64.375290 95.202576,61.433498 93.338364,57.989624 
z"/>
<path fill="#F6F6F6" opacity="1.000000" stroke="none" 
	d="
M255.865509,58.350349 
	C256.427582,59.785603 256.922211,60.841545 257.253082,61.946510 
	C260.237610,71.912941 258.737610,74.014282 248.686249,74.014290 
	C242.215515,74.014290 235.744781,74.014297 229.301529,74.014297 
	C228.269348,87.677055 235.409943,90.896278 255.615158,85.989311 
	C257.732727,89.403320 257.000488,92.260780 253.070679,92.966293 
	C247.266602,94.008301 241.231552,95.026085 235.434540,94.503799 
	C229.151352,93.937698 223.744308,89.852180 222.692642,83.489258 
	C221.560776,76.641190 221.387726,69.286766 222.633942,62.490211 
	C223.911011,55.525372 229.502655,51.182514 236.715988,50.171104 
	C244.421753,49.090645 251.333344,50.665066 255.865509,58.350349 
M230.002319,62.889381 
	C229.606735,64.464111 229.211151,66.038841 228.787781,67.724205 
	C236.220886,67.724205 243.255295,67.724205 250.304001,67.724205 
	C249.828766,60.598839 247.838547,57.468494 243.176819,56.203751 
	C238.007431,54.801270 233.491653,56.880486 230.002319,62.889381 
z"/>
<path fill="#F4F4F4" opacity="1.000000" stroke="none" 
	d="
M144.795654,57.299255 
	C144.485016,58.874535 144.166870,60.063911 143.698166,61.816124 
	C141.762543,60.556492 140.414688,59.671566 139.059174,58.798542 
	C131.192932,53.732277 123.461205,56.457989 121.559174,65.607155 
	C120.608200,70.181519 120.670776,75.291260 121.640999,79.869347 
	C123.386948,88.107788 130.750916,90.925316 138.191513,86.860657 
	C140.034424,85.853905 141.762360,84.636711 143.763641,83.377510 
	C146.153015,87.852600 144.846512,90.644005 141.025787,92.717110 
	C127.989410,99.790573 114.325470,92.533974 113.002052,77.814659 
	C111.655983,62.843365 115.974922,53.692684 125.808846,50.680420 
	C133.818390,48.226986 141.819687,50.854668 144.795654,57.299255 
z"/>
<path fill="#F5F5F5" opacity="1.000000" stroke="none" 
	d="
M161.934647,54.332382 
	C161.922592,67.262848 161.911972,79.725410 161.886124,92.187943 
	C161.885468,92.501190 161.716736,92.814095 161.623383,93.126289 
	C154.929276,95.222893 154.068192,94.633842 154.065903,87.925697 
	C154.062119,76.791779 153.976959,65.656128 154.194489,54.526447 
	C154.217896,53.328861 155.873657,51.376106 157.026642,51.165302 
	C158.932968,50.816750 162.079300,49.829006 161.934647,54.332382 
z"/>
<path fill="#F0F0F0" opacity="1.000000" stroke="none" 
	d="
M155.607635,34.187893 
	C158.174515,34.772213 160.961044,34.910419 162.297653,36.373356 
	C163.154404,37.311058 162.548019,40.970448 161.366394,42.008884 
	C160.101456,43.120529 157.078430,43.286922 155.416321,42.541801 
	C154.190231,41.992142 153.557404,39.356312 153.359665,37.572468 
	C153.247818,36.563560 154.548492,35.398067 155.607635,34.187893 
z"/>
<path fill="#060606" opacity="1.000000" stroke="none" 
	d="
M47.471451,58.393799 
	C42.495403,63.018261 36.774540,61.853710 31.005154,61.940113 
	C31.005154,55.382347 31.005154,49.152637 31.005154,42.398392 
	C36.967033,42.764381 43.415943,40.673309 47.818096,46.054207 
	C50.732868,49.617027 50.379280,54.103664 47.471451,58.393799 
z"/>
<path fill="#040404" opacity="1.000000" stroke="none" 
	d="
M189.235229,86.934647 
	C180.639633,79.835144 180.100281,65.525024 187.880569,59.273010 
	C194.292923,54.120228 201.513550,55.835373 203.171066,63.775475 
	C204.338715,69.368820 204.161545,75.644524 202.908783,81.240341 
	C201.325348,88.313240 196.448776,89.927650 189.235229,86.934647 
z"/>
<path fill="#040404" opacity="1.000000" stroke="none" 
	d="
M284.294861,55.953377 
	C292.689117,56.222706 295.978973,59.736401 295.741852,67.897499 
	C288.797607,67.897499 281.847839,67.897499 274.894012,67.897499 
	C275.075562,60.905411 277.236450,58.071144 284.294861,55.953377 
z"/>
<path fill="#040404" opacity="1.000000" stroke="none" 
	d="
M93.642929,58.240662 
	C95.202576,61.433498 96.457657,64.375290 97.951935,67.877739 
	C89.881966,67.877739 82.929054,67.877739 75.974899,67.877739 
	C75.967941,57.488377 83.842079,53.046188 93.642929,58.240662 
z"/>
<path fill="#030303" opacity="1.000000" stroke="none" 
	d="
M230.143265,62.514656 
	C233.491653,56.880486 238.007431,54.801270 243.176819,56.203751 
	C247.838547,57.468494 249.828766,60.598839 250.304001,67.724205 
	C243.255295,67.724205 236.220886,67.724205 228.787781,67.724205 
	C229.211151,66.038841 229.606735,64.464111 230.143265,62.514656 
z"/>
</svg>